name Walk4.mot
datacolumns 19
datarows 27
range 2.00300000 2.02900000
endheader

                time	   L_ground_force_vx	   L_ground_force_vy	   L_ground_force_vz	   L_ground_force_px	   L_ground_force_py	   L_ground_force_pz	   R_ground_force_vx	   R_ground_force_vy	   R_ground_force_vz	   R_ground_force_px	   R_ground_force_py	   R_ground_force_pz	   L_ground_torque_x	   L_ground_torque_y	   L_ground_torque_z	   R_ground_torque_x	   R_ground_torque_y	   R_ground_torque_z	
          2.00300000	          0.00490384	          0.02033791	         -0.00235929	         -0.00017799	          0.00000000	         -0.00005737	        -24.32348383	        532.69298172	        -36.99757045	          0.24362634	          0.00000000	          0.08262610	          0.00000000	          0.00011516	          0.00000000	          0.00000000	          1.63102529	          0.00000000	
          2.00400000	          0.00397063	          0.01724328	         -0.00226867	         -0.00016833	          0.00000000	         -0.00005440	        -23.78135793	        530.53361177	        -36.91984613	          0.24402256	          0.00000000	          0.08275230	          0.00000000	          0.00010868	          0.00000000	          0.00000000	          1.62539239	          0.00000000	
          2.00500000	          0.00310176	          0.01434662	         -0.00217719	         -0.00015886	          0.00000000	         -0.00005148	        -23.24645544	        528.40153479	        -36.84475927	          0.24442136	          0.00000000	          0.08287896	          0.00000000	          0.00010235	          0.00000000	          0.00000000	          1.61945642	          0.00000000	
          2.00600000	          0.00229504	          0.01164202	         -0.00208526	         -0.00014959	          0.00000000	         -0.00004861	        -22.71879786	        526.29730910	        -36.77218842	          0.24482275	          0.00000000	          0.08300604	          0.00000000	          0.00009616	          0.00000000	          0.00000000	          1.61322910	          0.00000000	
          2.00700000	          0.00154825	          0.00912339	         -0.00199326	         -0.00014054	          0.00000000	         -0.00004580	        -22.19840013	        524.22147553	        -36.70199919	          0.24522680	          0.00000000	          0.08313350	          0.00000000	          0.00009014	          0.00000000	          0.00000000	          1.60672226	          0.00000000	
          2.00800000	          0.00085910	          0.00678443	         -0.00190156	         -0.00013173	          0.00000000	         -0.00004305	        -21.68527054	        522.17455644	        -36.63404470	          0.24563353	          0.00000000	          0.08326129	          0.00000000	          0.00008429	          0.00000000	          0.00000000	          1.59994811	          0.00000000	
          2.00900000	          0.00022529	          0.00461870	         -0.00181046	         -0.00012318	          0.00000000	         -0.00004038	        -21.17941069	        520.15705437	        -36.56816626	          0.24604297	          0.00000000	          0.08338938	          0.00000000	          0.00007862	          0.00000000	          0.00000000	          1.59291937	          0.00000000	
          2.01000000	         -0.00035547	          0.00261966	         -0.00172027	         -0.00011488	          0.00000000	         -0.00003778	        -20.68081525	        518.16945070	        -36.50419417	          0.24645517	          0.00000000	          0.08351772	          0.00000000	          0.00007313	          0.00000000	          0.00000000	          1.58564944	          0.00000000	
          2.01100000	         -0.00088552	          0.00078069	         -0.00163125	         -0.00010686	          0.00000000	         -0.00003526	        -20.18947197	        516.21220510	        -36.44194871	          0.24687014	          0.00000000	          0.08364625	          0.00000000	          0.00006784	          0.00000000	          0.00000000	          1.57815247	          0.00000000	
          2.01200000	         -0.00136715	         -0.00090488	         -0.00154363	         -0.00009912	          0.00000000	         -0.00003282	        -19.70536201	        514.28575548	        -36.38124108	          0.24728790	          0.00000000	          0.08377493	          0.00000000	          0.00006273	          0.00000000	          0.00000000	          1.57044342	          0.00000000	
          2.01300000	         -0.00180266	         -0.00244371	         -0.00145763	         -0.00009165	          0.00000000	         -0.00003047	        -19.22846053	        512.39051826	        -36.32187462	          0.24770848	          0.00000000	          0.08390370	          0.00000000	          0.00005783	          0.00000000	          0.00000000	          1.56253796	          0.00000000	
          2.01400000	         -0.00219434	         -0.00384248	         -0.00137344	         -0.00008448	          0.00000000	         -0.00002820	        -18.75873758	        510.52688856	        -36.26364608	          0.24813187	          0.00000000	          0.08403251	          0.00000000	          0.00005312	          0.00000000	          0.00000000	          1.55445239	          0.00000000	
          2.01500000	         -0.00254442	         -0.00510779	         -0.00129121	         -0.00007760	          0.00000000	         -0.00002601	        -18.29615918	        508.69524043	        -36.20634704	          0.24855806	          0.00000000	          0.08416129	          0.00000000	          0.00004861	          0.00000000	          0.00000000	          1.54620338	          0.00000000	
          2.01600000	         -0.00285512	         -0.00624622	         -0.00121109	         -0.00007101	          0.00000000	         -0.00002391	        -17.84068852	        506.89592766	        -36.14976562	          0.24898705	          0.00000000	          0.08428998	          0.00000000	          0.00004430	          0.00000000	          0.00000000	          1.53780768	          0.00000000	
          2.01700000	         -0.00312861	         -0.00726425	         -0.00113321	         -0.00006471	          0.00000000	         -0.00002191	        -17.39228718	        505.12928544	        -36.09368828	          0.24941879	          0.00000000	          0.08441850	          0.00000000	          0.00004020	          0.00000000	          0.00000000	          1.52928177	          0.00000000	
          2.01800000	         -0.00336703	         -0.00816828	         -0.00105767	         -0.00005870	          0.00000000	         -0.00001998	        -16.95091607	        503.39563268	        -36.03790187	          0.24985325	          0.00000000	          0.08454679	          0.00000000	          0.00003628	          0.00000000	          0.00000000	          1.52064166	          0.00000000	
          2.01900000	         -0.00357245	         -0.00896458	         -0.00098456	         -0.00005299	          0.00000000	         -0.00001815	        -16.51653600	        501.69527428	        -35.98219568	          0.25029038	          0.00000000	          0.08467477	          0.00000000	          0.00003257	          0.00000000	          0.00000000	          1.51190281	          0.00000000	
          2.02000000	         -0.00374691	         -0.00965929	         -0.00091394	         -0.00004755	          0.00000000	         -0.00001641	        -16.08910791	        500.02850283	        -35.92636321	          0.25073013	          0.00000000	          0.08480239	          0.00000000	          0.00002904	          0.00000000	          0.00000000	          1.50308007	          0.00000000	
          2.02100000	         -0.00389238	         -0.01025844	         -0.00084587	         -0.00004240	          0.00000000	         -0.00001475	        -15.66859273	        498.39559937	        -35.87020383	          0.25117244	          0.00000000	          0.08492957	          0.00000000	          0.00002571	          0.00000000	          0.00000000	          1.49418775	          0.00000000	
          2.02200000	         -0.00401077	         -0.01076788	         -0.00078039	         -0.00003753	          0.00000000	         -0.00001317	        -15.25495121	        496.79683346	        -35.81352403	          0.25161725	          0.00000000	          0.08505628	          0.00000000	          0.00002256	          0.00000000	          0.00000000	          1.48523958	          0.00000000	
          2.02300000	         -0.00410393	         -0.01119332	         -0.00071754	         -0.00003293	          0.00000000	         -0.00001168	        -14.84814358	        495.23246291	        -35.75613858	          0.25206447	          0.00000000	          0.08518245	          0.00000000	          0.00001960	          0.00000000	          0.00000000	          1.47624872	          0.00000000	
          2.02400000	         -0.00417367	         -0.01154029	         -0.00065731	         -0.00002860	          0.00000000	         -0.00001028	        -14.44812917	        493.70273370	        -35.69787176	          0.25251404	          0.00000000	          0.08530805	          0.00000000	          0.00001681	          0.00000000	          0.00000000	          1.46722773	          0.00000000	
          2.02500000	         -0.00422171	         -0.01181415	         -0.00059972	         -0.00002452	          0.00000000	         -0.00000895	        -14.05486576	        492.20788049	        -35.63855849	          0.25296587	          0.00000000	          0.08543305	          0.00000000	          0.00001420	          0.00000000	          0.00000000	          1.45818851	          0.00000000	
          2.02600000	         -0.00424971	         -0.01202008	         -0.00054476	         -0.00002070	          0.00000000	         -0.00000770	        -13.66830892	        490.74812792	        -35.57804579	          0.25341986	          0.00000000	          0.08555740	          0.00000000	          0.00001175	          0.00000000	          0.00000000	          1.44914220	          0.00000000	
          2.02700000	         -0.00425927	         -0.01216308	         -0.00049242	         -0.00001713	          0.00000000	         -0.00000653	        -13.28841124	        489.32369229	        -35.51619401	          0.25387594	          0.00000000	          0.08568106	          0.00000000	          0.00000947	          0.00000000	          0.00000000	          1.44009900	          0.00000000	
          2.02800000	         -0.00425193	         -0.01224796	         -0.00044266	         -0.00001380	          0.00000000	         -0.00000543	        -12.91512180	        487.93478320	        -35.45287815	          0.25433400	          0.00000000	          0.08580403	          0.00000000	          0.00000735	          0.00000000	          0.00000000	          1.43106798	          0.00000000	
          2.02900000	         -0.00422914	         -0.01227935	         -0.00039547	         -0.00001070	          0.00000000	         -0.00000441	        -12.54838583	        486.58160487	        -35.38798887	          0.25479395	          0.00000000	          0.08592626	          0.00000000	          0.00000538	          0.00000000	          0.00000000	          1.42205690	          0.00000000	
